# xmcd
#
# Track frame offsets:
# 150
# 14664
# 26519
# 37695
# 49049
# 59907
# 73563
# 86693
# 102838
# 118764
# 133744
# 146003
#
# Disc length: 2123 seconds
#
#
# Revision: 0
# Processed by: cddbd v1.5.1PL0 Copyright (c) Steve Scherf et al.
# Submitted via: FreeRIP 2.70 
#
DISCID=aa08490c
DTITLE=Tião Carreiro e Pardinho - Pagode na Praça
DYEAR=1967
DGENRE=Sertanejo Raiz
TTITLE0=Cabelo Preto
TTITLE1=Florzinha do Campo
TTITLE2=Migalhas de Amor
TTITLE3=Rasqueadinho do Adeus
TTITLE4=Pobre de Mim
TTITLE5=Chave do Apartamento
TTITLE6=Pagode na Praça
TTITLE7=Canção do Soldado
TTITLE8=Última Viagem
TTITLE9=Domador
TTITLE10=Mar Vermelho
TTITLE11=Pula Pula
EXTD=
EXTT0=
EXTT1=
EXTT2=
EXTT3=
EXTT4=
EXTT5=
EXTT6=
EXTT7=
EXTT8=
EXTT9=
EXTT10=
EXTT11=
PLAYORDER=
